<svg id="b520026c-2a70-418a-acf3-1616eb73a0e8" data-name="Layer 1" xmlns="http://www.w3.org/2000/svg" viewBox="0 0 81.29 84"><path d="M78.56,52.67h0a4,4,0,0,0-4.9,2.15A36.23,36.23,0,0,1,32.17,74.91,35.63,35.63,0,0,1,22,70.63l6.58-4.57a1.85,1.85,0,0,0-.27-3.18L5.18,52a1.84,1.84,0,0,0-2.45.88,1.72,1.72,0,0,0-.17.92L4.7,79.26a1.85,1.85,0,0,0,2,1.68,1.92,1.92,0,0,0,.89-.32L15,75.48a2.41,2.41,0,0,0,.37.34,44.64,44.64,0,0,0,14.91,6.84,43.4,43.4,0,0,0,6.42,1.16A44.33,44.33,0,0,0,80.94,58.1a4,4,0,0,0-2-5.29Z"/><path d="M7.65,29.15a36,36,0,0,1,47.61-18c.53.24,1.06.49,1.58.76L50.65,17a1.83,1.83,0,0,0-.24,2.6,1.74,1.74,0,0,0,.76.55l23.9,9A1.84,1.84,0,0,0,77.43,28a1.93,1.93,0,0,0,.1-.92L73.38,1.91A1.85,1.85,0,0,0,71.27.38a1.74,1.74,0,0,0-.89.41l-7,5.7c-.14-.1-.26-.21-.4-.3A44.07,44.07,0,0,0,2.58,21.57,41.8,41.8,0,0,0,.36,25.82a4,4,0,0,0,2,5.29l.41.16h0A4,4,0,0,0,7.65,29.15Z"/></svg>