<?xml version="1.0" encoding="utf-8"?>
<!-- Generator: Adobe Illustrator 25.0.0, SVG Export Plug-In . SVG Version: 6.00 Build 0)  -->
<!DOCTYPE svg PUBLIC "-//W3C//DTD SVG 1.1//EN" "http://www.w3.org/Graphics/SVG/1.1/DTD/svg11.dtd" [
	<!ENTITY ns_extend "http://ns.adobe.com/Extensibility/1.0/">
	<!ENTITY ns_ai "http://ns.adobe.com/AdobeIllustrator/10.0/">
	<!ENTITY ns_graphs "http://ns.adobe.com/Graphs/1.0/">
	<!ENTITY ns_vars "http://ns.adobe.com/Variables/1.0/">
	<!ENTITY ns_imrep "http://ns.adobe.com/ImageReplacement/1.0/">
	<!ENTITY ns_sfw "http://ns.adobe.com/SaveForWeb/1.0/">
	<!ENTITY ns_custom "http://ns.adobe.com/GenericCustomNamespace/1.0/">
	<!ENTITY ns_adobe_xpath "http://ns.adobe.com/XPath/1.0/">
]>
<svg version="1.1" id="Layer_1" xmlns:x="&ns_extend;" xmlns:i="&ns_ai;" xmlns:graph="&ns_graphs;"
	 xmlns="http://www.w3.org/2000/svg" xmlns:xlink="http://www.w3.org/1999/xlink" x="0px" y="0px" viewBox="0 0 427.6 157"
	 style="enable-background:new 0 0 427.6 157;" xml:space="preserve">
<style type="text/css">
	.st0{fill:#D70A10;}
	.st1{fill-rule:evenodd;clip-rule:evenodd;fill:#FFFFFF;}
	.st2{fill:#FFFFFF;}
</style>
<metadata>
	<sfw  xmlns="&ns_sfw;">
		<slices></slices>
		<sliceSourceBounds  bottomLeftOrigin="true" height="157" width="427.6" x="0" y="0"></sliceSourceBounds>
	</sfw>
</metadata>
<path class="st0" d="M92.2,134h304.2c17.2,0,31.2-14.1,31.2-31.2V51.2c0-17.2-14.1-31.2-31.2-31.2H92.2C75.1,20,61,34.1,61,51.2
	v51.5C61,119.9,75.1,134,92.2,134z"/>
<circle class="st0" cx="78.5" cy="78.5" r="78.5"/>
<g>
	<path class="st1" d="M78.3,144.7c-36.4,0-65.8-29.5-65.8-65.8S41.9,13,78.3,13s65.8,29.5,65.8,65.8l0,0
		C144.1,115.2,114.7,144.7,78.3,144.7z M78.3,24C48,24,23.4,48.5,23.4,78.8s24.6,54.9,54.9,54.9s54.9-24.6,54.9-54.9
		S108.6,24,78.3,24z"/>
	<path class="st1" d="M76.5,83.3c0,10.8,0,21.2,0,32.2c-7.7,0-15.3,0.2-22.8-0.2c-3.3,0-3.9-2.2-3.9-4.4c-0.1-9.1,0-18.1,0-27.5
		C59,83.3,67.6,83.3,76.5,83.3z"/>
	<path class="st1" d="M80.9,115.7c0-11,0-21.5,0-32.4c8.7,0,17.3,0,26.5,0c0,9.3,0,18.4,0,27.6c0,3.3-2.6,4.8-5.7,4.8
		C95.1,115.7,88.3,115.7,80.9,115.7z"/>
	<path class="st1" d="M78.7,54.5c2.5-3.1,4.5-6,7-8.7c3.5-3.9,8-4.5,12-2.3c3.7,2.2,5.8,6.6,4.8,10.7c-1.2,4.6-4.5,7.3-9.9,7.4
		c-9.4,0.1-18.8,0.1-28.2,0c-5.2-0.1-8.4-2.7-9.5-7.6c-0.9-4,0.9-8.2,4.5-10.3c4-2.4,8.2-1.9,11.8,1.7
		C73.8,48.2,76.1,51.3,78.7,54.5z M75.7,57.6c-2.9-3.7-4.8-6.9-7.5-9.2c-1.6-1.2-4.8-1.9-6.6-1.1c-1.6,0.7-3.5,2.9-2.9,5.8
		c0.3,1.9,3.1,3.7,5,4.2C67.2,58.1,70.9,57.6,75.7,57.6z M81.6,57.7c5,0.2,8.6,0.5,11.9-0.3c3.5-0.8,4.8-3.1,5.1-5.1
		c0.2-1.5-0.9-4.2-2.8-5c-1.8-0.8-5-0.2-6.5,1C86.5,50.4,83.8,55,81.6,57.7z"/>
	<path class="st1" d="M76.5,65.8c0,4.5,0,8.5,0,13c-4.8,0-9.4,0-14,0c-2.5,0-5,0-7.5,0c-7,0-9.1,0.8-9.1-7.4c0-2.4,0.5-5.6,4.8-5.7
		C59.1,65.6,67.5,65.8,76.5,65.8z"/>
	<path class="st1" d="M80.9,78.9c0-4.9,0-8.7,0-13c9.1,0,17.9-0.1,26.7,0.1c3.4,0.2,2.9,4.5,2.9,4.8c0,9.2-1,8.3-8.8,8.2
		C94.9,78.9,88,78.9,80.9,78.9z"/>
</g>
<g>
	<path class="st2" d="M188.8,79.8c0,1.7-0.2,3.2-0.6,4.6c-0.4,1.4-1.1,2.6-1.9,3.5c-0.8,1-1.9,1.7-3.2,2.3c-1.3,0.5-2.8,0.8-4.5,0.8
		c-0.8,0-1.6,0-2.3-0.1c-0.8-0.1-1.6-0.2-2.4-0.4l0.4-4.1c0-0.4,0.2-0.6,0.4-0.9c0.2-0.2,0.6-0.3,1.1-0.3c0.2,0,0.5,0,0.9,0.1
		c0.3,0.1,0.8,0.1,1.2,0.1c0.7,0,1.3-0.1,1.8-0.3c0.5-0.2,0.9-0.5,1.2-0.9c0.3-0.4,0.6-1,0.7-1.7c0.2-0.7,0.2-1.6,0.2-2.6V60.6h7
		V79.8z"/>
	<path class="st2" d="M223.8,75.6c0,2.2-0.4,4.2-1.1,6.1s-1.8,3.5-3.2,4.9c-1.4,1.4-3,2.5-4.9,3.2c-1.9,0.8-4,1.2-6.4,1.2
		c-2.3,0-4.5-0.4-6.4-1.2c-1.9-0.8-3.6-1.9-4.9-3.2c-1.4-1.4-2.4-3-3.2-4.9c-0.8-1.9-1.1-3.9-1.1-6.1c0-2.2,0.4-4.2,1.1-6.1
		c0.8-1.9,1.8-3.5,3.2-4.9s3-2.5,4.9-3.2c1.9-0.8,4.1-1.2,6.4-1.2c2.3,0,4.5,0.4,6.4,1.2c1.9,0.8,3.6,1.9,4.9,3.3
		c1.4,1.4,2.4,3,3.2,4.9C223.4,71.5,223.8,73.5,223.8,75.6z M216.7,75.6c0-1.5-0.2-2.8-0.6-4c-0.4-1.2-0.9-2.2-1.7-3
		s-1.6-1.5-2.7-1.9c-1-0.4-2.2-0.7-3.6-0.7c-1.3,0-2.6,0.2-3.6,0.7c-1.1,0.4-1.9,1.1-2.7,1.9s-1.3,1.8-1.7,3c-0.4,1.2-0.6,2.5-0.6,4
		c0,1.5,0.2,2.8,0.6,4c0.4,1.2,0.9,2.2,1.7,3c0.7,0.8,1.6,1.5,2.7,1.9c1.1,0.4,2.3,0.7,3.6,0.7c1.3,0,2.5-0.2,3.6-0.7
		c1-0.4,1.9-1.1,2.7-1.9c0.7-0.8,1.3-1.8,1.7-3C216.5,78.5,216.7,77.1,216.7,75.6z"/>
	<path class="st2" d="M234.9,90.7h-7V60.6h7V90.7z"/>
	<path class="st2" d="M267,60.6v30.1h-3.6c-0.5,0-1-0.1-1.4-0.3c-0.4-0.2-0.7-0.5-1.1-0.9l-14.2-17.9c0.1,0.5,0.1,1.1,0.1,1.6
		c0,0.5,0,1,0,1.4v16.1h-6.2V60.6h3.7c0.3,0,0.6,0,0.8,0c0.2,0,0.4,0.1,0.6,0.2s0.3,0.2,0.5,0.3c0.2,0.1,0.3,0.3,0.5,0.6L261,79.7
		c-0.1-0.6-0.1-1.1-0.1-1.7c0-0.5,0-1.1,0-1.5V60.6H267z"/>
	<path class="st2" d="M308.6,60.6v30.1H305c-0.5,0-1-0.1-1.4-0.3c-0.4-0.2-0.7-0.5-1.1-0.9l-14.2-17.9c0.1,0.5,0.1,1.1,0.1,1.6
		c0,0.5,0,1,0,1.4v16.1h-6.2V60.6h3.7c0.3,0,0.6,0,0.8,0c0.2,0,0.4,0.1,0.6,0.2s0.3,0.2,0.5,0.3c0.2,0.1,0.3,0.3,0.5,0.6l14.3,18.1
		c-0.1-0.6-0.1-1.1-0.1-1.7c0-0.5,0-1.1,0-1.5V60.6H308.6z"/>
	<path class="st2" d="M344,75.6c0,2.2-0.4,4.2-1.1,6.1c-0.8,1.9-1.8,3.5-3.2,4.9c-1.4,1.4-3,2.5-4.9,3.2c-1.9,0.8-4,1.2-6.4,1.2
		c-2.3,0-4.5-0.4-6.4-1.2c-1.9-0.8-3.6-1.9-4.9-3.2c-1.4-1.4-2.4-3-3.2-4.9c-0.8-1.9-1.1-3.9-1.1-6.1c0-2.2,0.4-4.2,1.1-6.1
		c0.7-1.9,1.8-3.5,3.2-4.9c1.4-1.4,3-2.5,4.9-3.2c1.9-0.8,4.1-1.2,6.4-1.2c2.3,0,4.5,0.4,6.4,1.2c1.9,0.8,3.6,1.9,4.9,3.3
		c1.4,1.4,2.4,3,3.2,4.9C343.6,71.5,344,73.5,344,75.6z M336.8,75.6c0-1.5-0.2-2.8-0.6-4c-0.4-1.2-0.9-2.2-1.7-3s-1.6-1.5-2.7-1.9
		c-1-0.4-2.2-0.7-3.6-0.7c-1.3,0-2.5,0.2-3.6,0.7c-1.1,0.4-1.9,1.1-2.7,1.9s-1.3,1.8-1.7,3c-0.4,1.2-0.6,2.5-0.6,4
		c0,1.5,0.2,2.8,0.6,4c0.4,1.2,0.9,2.2,1.7,3c0.7,0.8,1.6,1.5,2.7,1.9c1.1,0.4,2.3,0.7,3.6,0.7c1.3,0,2.5-0.2,3.6-0.7
		c1-0.4,1.9-1.1,2.7-1.9c0.7-0.8,1.3-1.8,1.7-3C336.6,78.5,336.8,77.1,336.8,75.6z"/>
	<path class="st2" d="M388.2,60.6L379,90.7h-6.3L367,72c-0.1-0.3-0.2-0.6-0.3-1c-0.1-0.4-0.2-0.7-0.3-1.1c-0.1,0.4-0.2,0.8-0.3,1.1
		c-0.1,0.4-0.2,0.7-0.3,1L360,90.7h-6.3l-9.3-30.1h5.9c0.6,0,1.1,0.1,1.5,0.4c0.4,0.3,0.7,0.6,0.8,1.1l4.1,15.7
		c0.1,0.5,0.2,1,0.4,1.6c0.1,0.6,0.2,1.2,0.4,1.8c0.2-1.3,0.6-2.4,0.9-3.4l4.9-15.7c0.1-0.4,0.4-0.7,0.8-1s0.9-0.5,1.5-0.5h2.1
		c0.6,0,1.1,0.1,1.5,0.4c0.4,0.3,0.7,0.6,0.8,1.1l4.8,15.7c0.4,1,0.7,2.1,0.9,3.3c0.1-0.6,0.2-1.2,0.3-1.7c0.1-0.5,0.2-1.1,0.4-1.5
		l4.1-15.7c0.1-0.4,0.4-0.8,0.8-1.1c0.4-0.3,0.9-0.5,1.5-0.5H388.2z"/>
</g>
</svg>
