<?xml version="1.0" encoding="utf-8"?>
<!-- Generator: Adobe Illustrator 25.2.1, SVG Export Plug-In . SVG Version: 6.00 Build 0)  -->
<!DOCTYPE svg PUBLIC "-//W3C//DTD SVG 1.1//EN" "http://www.w3.org/Graphics/SVG/1.1/DTD/svg11.dtd" [
	<!ENTITY ns_extend "http://ns.adobe.com/Extensibility/1.0/">
	<!ENTITY ns_ai "http://ns.adobe.com/AdobeIllustrator/10.0/">
	<!ENTITY ns_graphs "http://ns.adobe.com/Graphs/1.0/">
	<!ENTITY ns_vars "http://ns.adobe.com/Variables/1.0/">
	<!ENTITY ns_imrep "http://ns.adobe.com/ImageReplacement/1.0/">
	<!ENTITY ns_sfw "http://ns.adobe.com/SaveForWeb/1.0/">
	<!ENTITY ns_custom "http://ns.adobe.com/GenericCustomNamespace/1.0/">
	<!ENTITY ns_adobe_xpath "http://ns.adobe.com/XPath/1.0/">
]>
<svg version="1.1" id="Layer_1" xmlns:x="&ns_extend;" xmlns:i="&ns_ai;" xmlns:graph="&ns_graphs;"
	 xmlns="http://www.w3.org/2000/svg" xmlns:xlink="http://www.w3.org/1999/xlink" x="0px" y="0px" viewBox="0 0 2183.9 2291.8"
	 style="enable-background:new 0 0 2183.9 2291.8;" xml:space="preserve">
<style type="text/css">
	.st0{fill:#88CFE7;}
	.st1{fill:#FFFFFF;}
	.st2{fill-rule:evenodd;clip-rule:evenodd;fill:#010101;}
	.st3{fill:none;stroke:#000000;stroke-width:65.9976;stroke-linecap:round;stroke-linejoin:round;stroke-miterlimit:10;}
	.st4{fill:none;stroke:#000000;stroke-width:63.2608;stroke-linecap:round;stroke-linejoin:round;stroke-miterlimit:10;}
	.st5{fill:#050606;}
</style>
<metadata>
	<sfw  xmlns="&ns_sfw;">
		<slices></slices>
		<sliceSourceBounds  bottomLeftOrigin="true" height="2291.8" width="2183.9" x="2376.1" y="-3790"></sliceSourceBounds>
	</sfw>
</metadata>
<g>
	<ellipse class="st0" cx="1092.2" cy="1161.1" rx="1089.5" ry="1114.5"/>
	<g>
		<circle class="st1" cx="1094.9" cy="1083.4" r="1055.3"/>
	</g>
	<g>
		<circle class="st2" cx="536.7" cy="182.1" r="34.8"/>
	</g>
	<g>
		<circle class="st1" cx="1092" cy="1090.6" r="850.5"/>
		<path d="M1092,1966.5c-234,0-453.9-91.1-619.3-256.5s-256.5-385.4-256.5-619.3s91.1-453.9,256.5-619.3
			C638.1,305.8,858,214.7,1092,214.7s453.9,91.1,619.3,256.5c165.4,165.4,256.5,385.4,256.5,619.3s-91.1,453.9-256.5,619.3
			C1545.9,1875.4,1325.9,1966.5,1092,1966.5z M1092,265.5c-454.9,0-825.1,370.1-825.1,825.1c0,454.9,370.1,825.1,825.1,825.1
			s825.1-370.1,825.1-825.1C1917,635.7,1546.9,265.5,1092,265.5z"/>
	</g>
	<g>
		<g>
			<path d="M1092,2182.6c-147.4,0-290.4-28.9-425.1-85.8c-130-55-246.8-133.7-347.1-234c-100.3-100.3-179-217.1-234-347.1
				C28.9,1381,0,1238,0,1090.6c0-158.3,33.1-311,98.5-453.9c7.6-16.6,27.2-23.9,43.7-16.3c16.6,7.6,23.9,27.2,16.3,43.7
				C97.1,798.4,66,941.9,66,1090.6c0,565.7,460.3,1026,1026,1026c565.7,0,1026-460.3,1026-1026c0-148.7-31.1-292.2-92.5-426.4
				c-7.6-16.6-0.3-36.2,16.3-43.7c16.6-7.6,36.2-0.3,43.7,16.3c65.4,142.9,98.5,295.6,98.5,453.9c0,147.4-28.9,290.4-85.8,425.1
				c-55,130-133.7,246.8-234,347.1c-100.3,100.3-217,179-347.1,234C1382.4,2153.7,1239.4,2182.6,1092,2182.6z"/>
		</g>
		<path class="st3" d="M1092,2291.8"/>
		<path class="st4" d="M1092,31.6c-69.6,0-137.6,6.7-203.4,19.5l0.1,0.5C954.6,38.5,1022.5,31.6,1092,31.6z"/>
		<g>
			<path d="M2055.4,682.1c-11.7,0-23-6.6-28.5-17.8C1854.2,308.6,1517.4,82.2,1140,64.4c-0.1,0-0.1,0-0.2,0
				c-15.3-0.7-30.7-1.1-46.1-1.1c-0.1,0-0.2,0-0.3,0c-0.1,0-0.2,0-0.3,0c-0.1,0-0.2,0-0.3,0c-0.1,0-0.2,0-0.2,0c-0.1,0-0.1,0-0.2,0
				c-0.2,0-0.3,0-0.5,0c-17.5,0-31.6-14.2-31.6-31.6S1074.5,0,1092,0c213,0,419.4,61.4,596.8,177.7
				c172.9,113.2,309.6,272.2,395.4,459.7c7.2,15.8,0.4,34.4-15.3,41.8C2064.5,681.1,2060,682.1,2055.4,682.1z"/>
		</g>
		<g>
			<path d="M128.5,682.1c-4.5,0-9.1-1-13.5-3c-15.7-7.4-22.5-26-15.3-41.8c73.9-161.5,187.7-304.2,329-412.6
				c6.8-5.2,15.5-7.5,24-6.2c8.5,1.3,16.1,6,21.1,13.1l2.1,2.9c9.7,13.8,6.8,32.8-6.5,43.2C338.6,379.1,230.6,512.8,157,664.3
				C151.5,675.5,140.3,682.1,128.5,682.1z"/>
		</g>
	</g>
</g>
<g>
	<path class="st5" d="M689.9,1352.1l-186.6,319c0,0,76.5,104.5,292.9,188.4l108.2-292.9l72.8-195.9l74.6-216.4l26.1-70.9l3.7-7.5
		c0,0,1.9-1.9,1.9-3.7l1.9-1.9l0,0h1.9h1.9l1.9,1.9l3.7,5.6l7.5,20.5l14.9,41l50.4,154.8l44.8,138.1l69,210.8l54.1,147.4l28,82.1
		c0,0,171.6-46.6,317.2-192.2L1574.2,1520l-69-117.5l-69-136.2l-57.8-119.4l-44.8-108.2l-37.3-108.2L1260.8,826l-37.3-119.4
		l-37.3-125l-33.6-123.1l-37.3-138.1l-20.5-67.2l-41,130.6l-56,182.8L953,706.6l-52.2,154.8L856,988.3l-48.5,123.1L753.4,1229
		L689.9,1352.1z"/>
</g>
</svg>
