<?xml version="1.0" encoding="utf-8"?>
<!-- Generator: Adobe Illustrator 25.2.1, SVG Export Plug-In . SVG Version: 6.00 Build 0)  -->
<!DOCTYPE svg PUBLIC "-//W3C//DTD SVG 1.1//EN" "http://www.w3.org/Graphics/SVG/1.1/DTD/svg11.dtd" [
	<!ENTITY ns_extend "http://ns.adobe.com/Extensibility/1.0/">
	<!ENTITY ns_ai "http://ns.adobe.com/AdobeIllustrator/10.0/">
	<!ENTITY ns_graphs "http://ns.adobe.com/Graphs/1.0/">
	<!ENTITY ns_vars "http://ns.adobe.com/Variables/1.0/">
	<!ENTITY ns_imrep "http://ns.adobe.com/ImageReplacement/1.0/">
	<!ENTITY ns_sfw "http://ns.adobe.com/SaveForWeb/1.0/">
	<!ENTITY ns_custom "http://ns.adobe.com/GenericCustomNamespace/1.0/">
	<!ENTITY ns_adobe_xpath "http://ns.adobe.com/XPath/1.0/">
]>
<svg version="1.1" id="Layer_1" xmlns:x="&ns_extend;" xmlns:i="&ns_ai;" xmlns:graph="&ns_graphs;"
	 xmlns="http://www.w3.org/2000/svg" xmlns:xlink="http://www.w3.org/1999/xlink" x="0px" y="0px" viewBox="0 0 2183.9 2291.8"
	 style="enable-background:new 0 0 2183.9 2291.8;" xml:space="preserve">
<style type="text/css">
	.st0{fill:#88CFE7;}
	.st1{fill:#FFFFFF;}
	.st2{fill-rule:evenodd;clip-rule:evenodd;fill:#010101;}
	.st3{fill:none;stroke:#000000;stroke-width:65.9976;stroke-linecap:round;stroke-linejoin:round;stroke-miterlimit:10;}
	.st4{fill:none;stroke:#000000;stroke-width:63.2608;stroke-linecap:round;stroke-linejoin:round;stroke-miterlimit:10;}
</style>
<metadata>
	<sfw  xmlns="&ns_sfw;">
		<slices></slices>
		<sliceSourceBounds  bottomLeftOrigin="true" height="2291.8" width="2183.9" x="2376.1" y="-3790"></sliceSourceBounds>
	</sfw>
</metadata>
<g>
	<ellipse class="st0" cx="1092.2" cy="1161.1" rx="1089.5" ry="1114.5"/>
	<g>
		<circle class="st1" cx="1094.9" cy="1083.4" r="1055.3"/>
	</g>
	<g>
		<circle class="st2" cx="536.7" cy="182.1" r="34.8"/>
	</g>
	<g>
		<circle class="st1" cx="1092" cy="1090.6" r="850.5"/>
		<path d="M1092,1966.5c-234,0-453.9-91.1-619.3-256.5s-256.5-385.4-256.5-619.3s91.1-453.9,256.5-619.3
			C638.1,305.8,858,214.7,1092,214.7s453.9,91.1,619.3,256.5c165.4,165.4,256.5,385.4,256.5,619.3s-91.1,453.9-256.5,619.3
			C1545.9,1875.4,1325.9,1966.5,1092,1966.5z M1092,265.5c-454.9,0-825.1,370.1-825.1,825.1c0,454.9,370.1,825.1,825.1,825.1
			s825.1-370.1,825.1-825.1C1917,635.7,1546.9,265.5,1092,265.5z"/>
	</g>
	<g>
		<g>
			<path d="M1092,2182.6c-147.4,0-290.4-28.9-425.1-85.8c-130-55-246.8-133.7-347.1-234c-100.3-100.3-179-217.1-234-347.1
				C28.9,1381,0,1238,0,1090.6c0-158.3,33.1-311,98.5-453.9c7.6-16.6,27.2-23.9,43.7-16.3c16.6,7.6,23.9,27.2,16.3,43.7
				C97.1,798.4,66,941.9,66,1090.6c0,565.7,460.3,1026,1026,1026c565.7,0,1026-460.3,1026-1026c0-148.7-31.1-292.2-92.5-426.4
				c-7.6-16.6-0.3-36.2,16.3-43.7c16.6-7.6,36.2-0.3,43.7,16.3c65.4,142.9,98.5,295.6,98.5,453.9c0,147.4-28.9,290.4-85.8,425.1
				c-55,130-133.7,246.8-234,347.1c-100.3,100.3-217,179-347.1,234C1382.4,2153.7,1239.4,2182.6,1092,2182.6z"/>
		</g>
		<path class="st3" d="M1092,2291.8"/>
		<path class="st4" d="M1092,31.6c-69.6,0-137.6,6.7-203.4,19.5l0.1,0.5C954.6,38.5,1022.5,31.6,1092,31.6z"/>
		<g>
			<path d="M2055.4,682.1c-11.7,0-23-6.6-28.5-17.8C1854.2,308.6,1517.4,82.2,1140,64.4c-0.1,0-0.1,0-0.2,0
				c-15.3-0.7-30.7-1.1-46.1-1.1c-0.1,0-0.2,0-0.3,0c-0.1,0-0.2,0-0.3,0c-0.1,0-0.2,0-0.3,0c-0.1,0-0.2,0-0.2,0c-0.1,0-0.1,0-0.2,0
				c-0.2,0-0.3,0-0.5,0c-17.5,0-31.6-14.2-31.6-31.6S1074.5,0,1092,0c213,0,419.4,61.4,596.8,177.7
				c172.9,113.2,309.6,272.2,395.4,459.7c7.2,15.8,0.4,34.4-15.3,41.8C2064.5,681.1,2060,682.1,2055.4,682.1z"/>
		</g>
		<g>
			<path d="M128.5,682.1c-4.5,0-9.1-1-13.5-3c-15.7-7.4-22.5-26-15.3-41.8c73.9-161.5,187.7-304.2,329-412.6
				c6.8-5.2,15.5-7.5,24-6.2c8.5,1.3,16.1,6,21.1,13.1l2.1,2.9c9.7,13.8,6.8,32.8-6.5,43.2C338.6,379.1,230.6,512.8,157,664.3
				C151.5,675.5,140.3,682.1,128.5,682.1z"/>
		</g>
	</g>
	<g>
		<path d="M617,933.4H708c12.6-59.6,32.1-113.8,58.4-162.6c26.3-48.8,57.8-90.3,94.7-124.7c36.9-34.4,78.6-60.9,125.1-79.6
			c46.5-18.7,96.2-28,149.3-28c71.7,0,133.8,14.3,186.1,42.8c52.3,28.5,94.4,66.3,126.2,113.3l-83.4,86.4
			c-6.1,7.1-12.6,13.3-19.7,18.6c-7.1,5.3-16.7,8-28.8,8s-22.4-3.8-30.7-11.4c-8.3-7.6-18.1-16-29.2-25.4
			c-11.1-9.3-25-17.8-41.7-25.4c-16.7-7.6-39.4-11.4-68.2-11.4c-47.5,0-88,16.8-121.6,50.4c-33.6,33.6-58.2,83.2-73.9,148.9h348.6
			v69.7c0,6.6-1.5,13.1-4.5,19.7c-3,6.6-7.3,12.5-12.9,17.8c-5.6,5.3-12.3,9.6-20.1,12.9c-7.8,3.3-16.6,4.9-26.1,4.9H934.6
			c-0.5,7.1-0.8,14.2-0.8,21.2c0,7.1,0,14.2,0,21.2v26.5h292.5v69.7c0,6.6-1.5,13.1-4.5,19.7c-3,6.6-7.3,12.5-12.9,17.8
			c-5.6,5.3-12.3,9.6-20.1,12.9c-7.8,3.3-16.6,4.9-26.1,4.9H946c13.1,73.3,36.1,127.6,69,162.9c32.8,35.4,73,53.1,120.5,53.1
			c21.2,0,39.4-2.1,54.6-6.4c15.2-4.3,28-9.5,38.7-15.5c10.6-6.1,19.6-12.9,26.9-20.5c7.3-7.6,14.1-14.4,20.5-20.5
			c6.3-6.1,12.6-11.2,18.9-15.5c6.3-4.3,13.8-6.4,22.4-6.4c7.1,0,13,1,17.8,3c4.8,2,10,5.8,15.5,11.4l103.1,91.7
			c-34.9,57.1-80.6,100.4-137.2,130c-56.6,29.6-121,44.3-193.3,44.3c-60.1,0-114.1-10-161.8-29.9c-47.7-20-89.2-47.9-124.3-83.7
			c-35.1-35.9-63.9-79.1-86.4-129.6c-22.5-50.5-38.5-106.6-48.1-168.2H617v-125h74.3v-26.5c0-7.1,0-14.1,0-21.2
			c0-7.1,0.2-14.1,0.8-21.2h-75V933.4z"/>
	</g>
</g>
</svg>
