<?xml version="1.0" encoding="utf-8"?>
<!-- Generator: Adobe Illustrator 25.2.1, SVG Export Plug-In . SVG Version: 6.00 Build 0)  -->
<!DOCTYPE svg PUBLIC "-//W3C//DTD SVG 1.1//EN" "http://www.w3.org/Graphics/SVG/1.1/DTD/svg11.dtd" [
	<!ENTITY ns_extend "http://ns.adobe.com/Extensibility/1.0/">
	<!ENTITY ns_ai "http://ns.adobe.com/AdobeIllustrator/10.0/">
	<!ENTITY ns_graphs "http://ns.adobe.com/Graphs/1.0/">
	<!ENTITY ns_vars "http://ns.adobe.com/Variables/1.0/">
	<!ENTITY ns_imrep "http://ns.adobe.com/ImageReplacement/1.0/">
	<!ENTITY ns_sfw "http://ns.adobe.com/SaveForWeb/1.0/">
	<!ENTITY ns_custom "http://ns.adobe.com/GenericCustomNamespace/1.0/">
	<!ENTITY ns_adobe_xpath "http://ns.adobe.com/XPath/1.0/">
]>
<svg version="1.1" id="Layer_1" xmlns:x="&ns_extend;" xmlns:i="&ns_ai;" xmlns:graph="&ns_graphs;"
	 xmlns="http://www.w3.org/2000/svg" xmlns:xlink="http://www.w3.org/1999/xlink" x="0px" y="0px" viewBox="0 0 2183.9 2291.8"
	 style="enable-background:new 0 0 2183.9 2291.8;" xml:space="preserve">
<style type="text/css">
	.st0{fill:#88CFE7;}
	.st1{fill:#FFFFFF;}
	.st2{fill-rule:evenodd;clip-rule:evenodd;fill:#010101;}
	.st3{fill:none;stroke:#000000;stroke-width:65.9976;stroke-linecap:round;stroke-linejoin:round;stroke-miterlimit:10;}
	.st4{fill:none;stroke:#000000;stroke-width:63.2608;stroke-linecap:round;stroke-linejoin:round;stroke-miterlimit:10;}
	.st5{fill:#231F20;}
</style>
<metadata>
	<sfw  xmlns="&ns_sfw;">
		<slices></slices>
		<sliceSourceBounds  bottomLeftOrigin="true" height="2291.8" width="2183.9" x="2376.1" y="-3790"></sliceSourceBounds>
	</sfw>
</metadata>
<g>
	<ellipse class="st0" cx="1092.2" cy="1161.1" rx="1089.5" ry="1114.5"/>
	<g>
		<circle class="st1" cx="1094.9" cy="1083.4" r="1055.3"/>
	</g>
	<g>
		<circle class="st2" cx="536.7" cy="182.1" r="34.8"/>
	</g>
	<g>
		<circle class="st1" cx="1092" cy="1090.6" r="850.5"/>
		<path d="M1092,1966.5c-234,0-453.9-91.1-619.3-256.5s-256.5-385.4-256.5-619.3s91.1-453.9,256.5-619.3
			C638.1,305.8,858,214.7,1092,214.7s453.9,91.1,619.3,256.5c165.4,165.4,256.5,385.4,256.5,619.3s-91.1,453.9-256.5,619.3
			C1545.9,1875.4,1325.9,1966.5,1092,1966.5z M1092,265.5c-454.9,0-825.1,370.1-825.1,825.1c0,454.9,370.1,825.1,825.1,825.1
			s825.1-370.1,825.1-825.1C1917,635.7,1546.9,265.5,1092,265.5z"/>
	</g>
	<g>
		<g>
			<path d="M1092,2182.6c-147.4,0-290.4-28.9-425.1-85.8c-130-55-246.8-133.7-347.1-234c-100.3-100.3-179-217.1-234-347.1
				C28.9,1381,0,1238,0,1090.6c0-158.3,33.1-311,98.5-453.9c7.6-16.6,27.2-23.9,43.7-16.3c16.6,7.6,23.9,27.2,16.3,43.7
				C97.1,798.4,66,941.9,66,1090.6c0,565.7,460.3,1026,1026,1026c565.7,0,1026-460.3,1026-1026c0-148.7-31.1-292.2-92.5-426.4
				c-7.6-16.6-0.3-36.2,16.3-43.7c16.6-7.6,36.2-0.3,43.7,16.3c65.4,142.9,98.5,295.6,98.5,453.9c0,147.4-28.9,290.4-85.8,425.1
				c-55,130-133.7,246.8-234,347.1c-100.3,100.3-217,179-347.1,234C1382.4,2153.7,1239.4,2182.6,1092,2182.6z"/>
		</g>
		<path class="st3" d="M1092,2291.8"/>
		<path class="st4" d="M1092,31.6c-69.6,0-137.6,6.7-203.4,19.5l0.1,0.5C954.6,38.5,1022.5,31.6,1092,31.6z"/>
		<g>
			<path d="M2055.4,682.1c-11.7,0-23-6.6-28.5-17.8C1854.2,308.6,1517.4,82.2,1140,64.4c-0.1,0-0.1,0-0.2,0
				c-15.3-0.7-30.7-1.1-46.1-1.1c-0.1,0-0.2,0-0.3,0c-0.1,0-0.2,0-0.3,0c-0.1,0-0.2,0-0.3,0c-0.1,0-0.2,0-0.2,0c-0.1,0-0.1,0-0.2,0
				c-0.2,0-0.3,0-0.5,0c-17.5,0-31.6-14.2-31.6-31.6S1074.5,0,1092,0c213,0,419.4,61.4,596.8,177.7
				c172.9,113.2,309.6,272.2,395.4,459.7c7.2,15.8,0.4,34.4-15.3,41.8C2064.5,681.1,2060,682.1,2055.4,682.1z"/>
		</g>
		<g>
			<path d="M128.5,682.1c-4.5,0-9.1-1-13.5-3c-15.7-7.4-22.5-26-15.3-41.8c73.9-161.5,187.7-304.2,329-412.6
				c6.8-5.2,15.5-7.5,24-6.2c8.5,1.3,16.1,6,21.1,13.1l2.1,2.9c9.7,13.8,6.8,32.8-6.5,43.2C338.6,379.1,230.6,512.8,157,664.3
				C151.5,675.5,140.3,682.1,128.5,682.1z"/>
		</g>
	</g>
	<g>
		<path class="st5" d="M1174.9,1006.7c20.7,6.1,41.5,12.7,62.2,19.8s40.7,15.3,59.9,24.6s37.2,20,53.8,32.1s31.1,26.4,43.4,42.8
			c12.3,16.4,21.9,35.2,28.8,56.4c6.9,21.2,10.4,45.6,10.4,73.2c0,41-6.9,79.6-20.8,115.7c-13.8,36.1-34.1,68-60.9,95.9
			c-26.8,27.9-59.6,50.5-98.5,68s-83.4,28.2-133.5,32.1l-7.8,80.3c-0.9,12.1-6.2,23-15.9,32.7c-9.7,9.7-22.1,14.6-37.2,14.6h-73.9
			l13-133.5c-49.7-8.2-97.1-22.6-142.2-43.1c-45.2-20.5-83.3-45.2-114.4-74.2l62.2-90.1c5.2-7.3,12.2-13.5,21-18.5
			s18.3-7.5,28.2-7.5c10.4,0,20.9,2.7,31.8,8.1c10.8,5.4,22.6,11.9,35.3,19.4c12.7,7.6,26.8,15.3,42.1,23.3
			c15.3,8,32.7,14.6,52.2,19.8l24-244.3c-31.1-8.6-62.1-18.8-93-30.5c-30.9-11.7-58.6-27.4-83.3-47.3s-44.6-45.1-59.9-75.8
			c-15.3-30.7-23-69.1-23-115.4c0-34.1,6.9-67.4,20.7-99.8c13.8-32.4,34-61.6,60.6-87.5s59.3-47.2,98.2-63.8s83.4-26.2,133.5-28.8
			l7.1-71.9c0.9-12.1,6.2-23,15.9-32.7s22.1-14.6,37.3-14.6h73.9l-12.3,127c46.7,8.6,86.7,22.7,120.2,42.1s61.9,40.2,85.2,62.2
			l-49.2,71.9c-7.3,10.8-14.8,18.7-22.4,23.7s-16.5,7.5-26.9,7.5c-6.5,0-14.2-1.6-23-4.9c-8.9-3.2-18.5-7.1-28.8-11.7
			s-21.5-9.3-33.4-14.3s-24.5-9.4-37.9-13.3L1174.9,1006.7z M1075.8,771.5c-19.9,3-36.6,7.6-50.2,13.6c-13.6,6.1-24.6,13.2-33,21.4
			c-8.4,8.2-14.6,17.4-18.5,27.5c-3.9,10.2-5.8,20.9-5.8,32.1c0,25.5,8.2,46.1,24.6,61.9s37.6,29,63.5,39.8L1075.8,771.5z
			 M1136,1402.6c71.3-11.7,106.9-50.8,106.9-117.3c0-25-7.9-44.8-23.7-59.3c-15.8-14.5-36.6-26.7-62.5-36.6L1136,1402.6z"/>
	</g>
</g>
</svg>
